<svg width="85" height="69" viewBox="0 0 85 69" fill="none" xmlns="http://www.w3.org/2000/svg">
<path d="M84.2133 8.12061C81.1164 9.49288 77.7895 10.4201 74.2921 10.8392C77.9008 8.67987 80.6006 5.28135 81.8878 1.27777C78.4974 3.29164 74.7867 4.70918 70.917 5.46878C68.3148 2.69034 64.8681 0.848751 61.112 0.229921C57.3559 -0.38891 53.5006 0.249643 50.1446 2.04644C46.7886 3.84324 44.1197 6.69775 42.5523 10.1668C40.9848 13.6358 40.6065 17.5253 41.4761 21.2314C34.6062 20.8865 27.8855 19.1009 21.7503 15.9904C15.6151 12.88 10.2025 8.51434 5.8637 3.1767C4.38016 5.73581 3.52712 8.7029 3.52712 11.8628C3.52547 14.7075 4.22599 17.5086 5.56654 20.0176C6.90709 22.5266 8.84622 24.6659 11.2119 26.2458C8.46834 26.1585 5.78534 25.4172 3.38619 24.0835V24.306C3.38591 28.2958 4.766 32.1628 7.29229 35.2509C9.81858 38.3389 13.3355 40.4579 17.2462 41.2481C14.7011 41.9369 12.0328 42.0383 9.44275 41.5448C10.5461 44.9778 12.6954 47.9798 15.5897 50.1305C18.484 52.2813 21.9784 53.4732 25.5837 53.5392C19.4635 58.3437 11.905 60.9499 4.12425 60.9384C2.74597 60.9388 1.36885 60.8583 0 60.6973C7.89792 65.7754 17.0917 68.4704 26.4812 68.46C58.2661 68.46 75.6421 42.1345 75.6421 19.3028C75.6421 18.561 75.6236 17.8118 75.5902 17.0701C78.97 14.6258 81.8875 11.5991 84.2059 8.13173L84.2133 8.12061Z" fill="#1DA1F2"/>
</svg>
