<svg width="14" height="14" viewBox="0 0 14 14" fill="none" xmlns="http://www.w3.org/2000/svg">
<path fill-rule="evenodd" clip-rule="evenodd" d="M14 2.5C14 1.83696 13.7366 1.20107 13.2678 0.732233C12.7989 0.263392 12.163 0 11.5 0H2.5C1.83696 0 1.20107 0.263392 0.732233 0.732233C0.263392 1.20107 0 1.83696 0 2.5V3V11.5C0 12.163 0.263392 12.7989 0.732233 13.2678C1.20107 13.7366 1.83696 14 2.5 14H11.5C12.163 14 12.7989 13.7366 13.2678 13.2678C13.7366 12.7989 14 12.163 14 11.5V3V2.5ZM1 4H13V11.5C13 11.8978 12.842 12.2794 12.5607 12.5607C12.2794 12.842 11.8978 13 11.5 13H2.5C2.10218 13 1.72064 12.842 1.43934 12.5607C1.15804 12.2794 1 11.8978 1 11.5V4ZM4 10.2C4.26522 10.2 4.51957 10.1368 4.70711 10.0243C4.89464 9.91174 5 9.75913 5 9.6C5 9.44087 4.89464 9.28826 4.70711 9.17574C4.51957 9.06321 4.26522 9 4 9C3.73478 9 3.48043 9.06321 3.29289 9.17574C3.10536 9.28826 3 9.44087 3 9.6C3 9.75913 3.10536 9.91174 3.29289 10.0243C3.48043 10.1368 3.73478 10.2 4 10.2ZM5 11.4C5 11.5591 4.89464 11.7117 4.70711 11.8243C4.51957 11.9368 4.26522 12 4 12C3.73478 12 3.48043 11.9368 3.29289 11.8243C3.10536 11.7117 3 11.5591 3 11.4C3 11.2409 3.10536 11.0883 3.29289 10.9757C3.48043 10.8632 3.73478 10.8 4 10.8C4.26522 10.8 4.51957 10.8632 4.70711 10.9757C4.89464 11.0883 5 11.2409 5 11.4ZM7 10.2C7.26522 10.2 7.51957 10.1368 7.70711 10.0243C7.89464 9.91174 8 9.75913 8 9.6C8 9.44087 7.89464 9.28826 7.70711 9.17574C7.51957 9.06321 7.26522 9 7 9C6.73478 9 6.48043 9.06321 6.29289 9.17574C6.10536 9.28826 6 9.44087 6 9.6C6 9.75913 6.10536 9.91174 6.29289 10.0243C6.48043 10.1368 6.73478 10.2 7 10.2ZM8 11.4C8 11.5591 7.89464 11.7117 7.70711 11.8243C7.51957 11.9368 7.26522 12 7 12C6.73478 12 6.48043 11.9368 6.29289 11.8243C6.10536 11.7117 6 11.5591 6 11.4C6 11.2409 6.10536 11.0883 6.29289 10.9757C6.48043 10.8632 6.73478 10.8 7 10.8C7.26522 10.8 7.51957 10.8632 7.70711 10.9757C7.89464 11.0883 8 11.2409 8 11.4ZM10 10.2C10.2652 10.2 10.5196 10.1368 10.7071 10.0243C10.8946 9.91174 11 9.75913 11 9.6C11 9.44087 10.8946 9.28826 10.7071 9.17574C10.5196 9.06321 10.2652 9 10 9C9.73478 9 9.48043 9.06321 9.29289 9.17574C9.10536 9.28826 9 9.44087 9 9.6C9 9.75913 9.10536 9.91174 9.29289 10.0243C9.48043 10.1368 9.73478 10.2 10 10.2ZM4.70711 6.02426C4.51957 6.13679 4.26522 6.2 4 6.2C3.73478 6.2 3.48043 6.13679 3.29289 6.02426C3.10536 5.91174 3 5.75913 3 5.6C3 5.44087 3.10536 5.28826 3.29289 5.17574C3.48043 5.06321 3.73478 5 4 5C4.26522 5 4.51957 5.06321 4.70711 5.17574C4.89464 5.28826 5 5.44087 5 5.6C5 5.75913 4.89464 5.91174 4.70711 6.02426ZM7.70711 6.02426C7.51957 6.13679 7.26522 6.2 7 6.2C6.73478 6.2 6.48043 6.13679 6.29289 6.02426C6.10536 5.91174 6 5.75913 6 5.6C6 5.44087 6.10536 5.28826 6.29289 5.17574C6.48043 5.06321 6.73478 5 7 5C7.26522 5 7.51957 5.06321 7.70711 5.17574C7.89464 5.28826 8 5.44087 8 5.6C8 5.75913 7.89464 5.91174 7.70711 6.02426ZM10.7071 6.02426C10.5196 6.13679 10.2652 6.2 10 6.2C9.73478 6.2 9.48043 6.13679 9.29289 6.02426C9.10536 5.91174 9 5.75913 9 5.6C9 5.44087 9.10536 5.28826 9.29289 5.17574C9.48043 5.06321 9.73478 5 10 5C10.2652 5 10.5196 5.06321 10.7071 5.17574C10.8946 5.28826 11 5.44087 11 5.6C11 5.75913 10.8946 5.91174 10.7071 6.02426ZM4 8.2C4.26522 8.2 4.51957 8.13679 4.70711 8.02426C4.89464 7.91174 5 7.75913 5 7.6C5 7.44087 4.89464 7.28826 4.70711 7.17574C4.51957 7.06321 4.26522 7 4 7C3.73478 7 3.48043 7.06321 3.29289 7.17574C3.10536 7.28826 3 7.44087 3 7.6C3 7.75913 3.10536 7.91174 3.29289 8.02426C3.48043 8.13679 3.73478 8.2 4 8.2ZM7 8.2C7.26522 8.2 7.51957 8.13679 7.70711 8.02426C7.89464 7.91174 8 7.75913 8 7.6C8 7.44087 7.89464 7.28826 7.70711 7.17574C7.51957 7.06321 7.26522 7 7 7C6.73478 7 6.48043 7.06321 6.29289 7.17574C6.10536 7.28826 6 7.44087 6 7.6C6 7.75913 6.10536 7.91174 6.29289 8.02426C6.48043 8.13679 6.73478 8.2 7 8.2ZM10 8.2C10.2652 8.2 10.5196 8.13679 10.7071 8.02426C10.8946 7.91174 11 7.75913 11 7.6C11 7.44087 10.8946 7.28826 10.7071 7.17574C10.5196 7.06321 10.2652 7 10 7C9.73478 7 9.48043 7.06321 9.29289 7.17574C9.10536 7.28826 9 7.44087 9 7.6C9 7.75913 9.10536 7.91174 9.29289 8.02426C9.48043 8.13679 9.73478 8.2 10 8.2Z" fill="#666666"/>
</svg>
