<svg width="51" height="47" viewBox="0 0 51 47" fill="none" xmlns="http://www.w3.org/2000/svg">
<path fill-rule="evenodd" clip-rule="evenodd" d="M25.5884 1.08773C25.3392 0.9658 25.0473 0.971233 24.8027 1.10236L1.46206 13.6144C0.663531 14.0425 0.965005 15.2635 1.86922 15.2635H6.25383C6.39901 15.2635 6.5217 15.3721 6.54064 15.5173L9.88664 41.1773C10.2465 43.9369 12.5776 46 15.3361 46H35.7277C38.5461 46 40.9079 43.8488 41.1954 41.0197L43.8689 14.7168C43.8841 14.5679 44.0084 14.4546 44.1567 14.4546H49.1309C50.0524 14.4546 50.3387 13.1966 49.5095 12.7909L25.5884 1.08773ZM17.4712 23.869C17.4712 19.563 20.9305 16.0724 25.1978 16.0724C29.4651 16.0724 32.9245 19.563 32.9245 23.869C32.9245 28.175 29.4651 31.6656 25.1978 31.6656C20.9305 31.6656 17.4712 28.175 17.4712 23.869Z" fill="black" stroke="black"/>
</svg>
