<svg width="32" height="29" viewBox="0 0 32 29" fill="none" xmlns="http://www.w3.org/2000/svg">
<path fill-rule="evenodd" clip-rule="evenodd" d="M17.2443 0.697635C16.7966 0.441858 16.2491 0.433866 15.7942 0.676471L4.00846 6.96218L0.79417 8.67647C0.0632045 9.06632 -0.213326 9.97492 0.176523 10.7059C0.566371 11.4368 1.47497 11.7134 2.20593 11.3235L3.54379 10.61L6.0164 27.2208C6.12581 27.9559 6.75692 28.5 7.50005 28.5H25.5001C26.2668 28.5 26.9101 27.9218 26.9916 27.1594L28.7478 10.7263L29.7558 11.3024C30.4751 11.7134 31.3914 11.4635 31.8024 10.7442C32.2134 10.0249 31.9635 9.10865 31.2443 8.69764L28.2443 6.98335L17.2443 0.697635ZM8.7933 25.5L6.35377 9.11135L16.475 3.71334L25.9043 9.1015L24.1518 25.5H8.7933ZM19 14.5C19 15.8807 17.8808 17 16.5 17C15.1193 17 14.0001 15.8807 14.0001 14.5C14.0001 13.1193 15.1193 12 16.5 12C17.8808 12 19 13.1193 19 14.5ZM22 14.5C22 17.5376 19.5376 20 16.5 20C13.4625 20 11.0001 17.5376 11.0001 14.5C11.0001 11.4624 13.4625 9 16.5 9C19.5376 9 22 11.4624 22 14.5Z" fill="black"/>
</svg>
