<?xml version="1.0" encoding="utf-8"?>
<!-- Generator: Adobe Illustrator 24.1.0, SVG Export Plug-In . SVG Version: 6.00 Build 0)  -->
<svg version="1.1" id="Layer_1" xmlns="http://www.w3.org/2000/svg" xmlns:xlink="http://www.w3.org/1999/xlink" x="0px" y="0px"
	 viewBox="0 0 85 69" style="enable-background:new 0 0 85 69;" xml:space="preserve">
<style type="text/css">
	.st0{fill:#FFFFFF;}
</style>
<path class="st0" d="M84.2,8.1c-3.1,1.4-6.4,2.3-9.9,2.7c3.6-2.2,6.3-5.6,7.6-9.6c-3.4,2-7.1,3.4-11,4.2c-2.6-2.8-6-4.6-9.8-5.2
	c-3.8-0.6-7.6,0-11,1.8c-3.4,1.8-6,4.7-7.6,8.1c-1.6,3.5-1.9,7.4-1.1,11.1c-6.9-0.3-13.6-2.1-19.7-5.2C15.6,12.9,10.2,8.5,5.9,3.2
	c-1.5,2.6-2.3,5.5-2.3,8.7c0,2.8,0.7,5.6,2,8.2s3.3,4.6,5.6,6.2c-2.7-0.1-5.4-0.8-7.8-2.2v0.2c0,4,1.4,7.9,3.9,10.9
	c2.5,3.1,6,5.2,10,6c-2.5,0.7-5.2,0.8-7.8,0.3c1.1,3.4,3.3,6.4,6.1,8.6c2.9,2.2,6.4,3.3,10,3.4c-6.1,4.8-13.7,7.4-21.5,7.4
	c-1.4,0-2.8-0.1-4.1-0.2c7.9,5.1,17.1,7.8,26.5,7.8c31.8,0,49.2-26.3,49.2-49.2c0-0.7,0-1.5-0.1-2.2C79,14.6,81.9,11.6,84.2,8.1
	L84.2,8.1z"/>
</svg>
